HIERARCHY
ROOT hips
{
  OFFSET 0 10.6860622 2.3727825e-15
  CHANNELS 6 Xposition Yposition Zposition Yrotation Xrotation Zrotation
  JOINT leftUpperLeg
  {
    OFFSET 0.6642549969 -0.9402397400000004 0
    CHANNELS 3 Yrotation Xrotation Zrotation
    JOINT leftLowerLeg
    {
      OFFSET 0 -3.997221335632195 0
      CHANNELS 3 Yrotation Xrotation Zrotation
      JOINT leftFoot
      {
        OFFSET -0.13777839790000004 -4.6145792000000005 -0.22186036399999998
        CHANNELS 3 Yrotation Xrotation Zrotation
        JOINT leftToes
        {
          OFFSET -0.03777410834999995 -0.9130806927000008 0.85230013
          CHANNELS 3 Yrotation Xrotation Zrotation
          End Site
          {
            OFFSET -0.03777410834999995 -0.9130806927000008 0.85230013
          }
        }
      }
    }
  }
  JOINT rightUpperLeg
  {
    OFFSET -0.6642778626 -0.9402397400000004 0
    CHANNELS 3 Yrotation Xrotation Zrotation
    JOINT rightLowerLeg
    {
      OFFSET 0 -3.997221452859387 0
      CHANNELS 3 Yrotation Xrotation Zrotation
      JOINT rightFoot
      {
        OFFSET 0.1377926176 -4.6145792000000005 -0.22185782299999995
        CHANNELS 3 Yrotation Xrotation Zrotation
        JOINT rightToes
        {
          OFFSET 0.037780746850000047 -0.9130806927000008 0.85230167
          CHANNELS 3 Yrotation Xrotation Zrotation
          End Site
          {
            OFFSET 0.037780746850000047 -0.9130806927000008 0.85230167
          }
        }
      }
    }
  }
  JOINT spine
  {
    OFFSET 0 0.13988381660000015 0
    CHANNELS 3 Yrotation Xrotation Zrotation
    JOINT chest
    {
      OFFSET 0 0.6191039003973773 0
      CHANNELS 3 Yrotation Xrotation Zrotation
      JOINT upperChest
      {
        OFFSET 0 0.9855186130586943 0
        CHANNELS 3 Yrotation Xrotation Zrotation
        JOINT leftShoulder
        {
          OFFSET 0.1807663869 1.5087829790000005 0
          CHANNELS 3 Yrotation Xrotation Zrotation
          JOINT leftUpperArm
          {
            OFFSET 0.5985063006419806 0 0
            CHANNELS 3 Yrotation Xrotation Zrotation
            JOINT leftLowerArm
            {
              OFFSET 2.2993332369501065 0 0
              CHANNELS 3 Yrotation Xrotation Zrotation
              JOINT leftHand
              {
                OFFSET 2.395047042602395 0 0
                CHANNELS 3 Yrotation Xrotation Zrotation
                JOINT leftIndexProximal
                {
                  OFFSET 0.5766295810000004 0.04556643899499946 0.17265095988184
                  CHANNELS 3 Yrotation Xrotation Zrotation
                  JOINT leftIndexIntermediate
                  {
                    OFFSET 0.2957229000000008 -0.019352197700001517 -0.007932640616999987
                    CHANNELS 3 Yrotation Xrotation Zrotation
                    JOINT leftIndexDistal
                    {
                      OFFSET 0.19008243099999922 -0.012484908149998475 -0.002786250786000012
                      CHANNELS 3 Yrotation Xrotation Zrotation
                      End Site
                      {
                        OFFSET 0.19008243099999922 -0.012484908149998475 -0.002786250786000012
                      }
                    }
                  }
                }
                JOINT leftMiddleProximal
                {
                  OFFSET 0.5834975091000001 0.0524350405149987 0.02204081888183999
                  CHANNELS 3 Yrotation Xrotation Zrotation
                  JOINT leftMiddleIntermediate
                  {
                    OFFSET 0.33880573540000003 -0.019871473270000717 -0.00000971183179999946
                    CHANNELS 3 Yrotation Xrotation Zrotation
                    JOINT leftMiddleDistal
                    {
                      OFFSET 0.20676022730000088 -0.012221336379999448 0.0001471936708000235
                      CHANNELS 3 Yrotation Xrotation Zrotation
                      End Site
                      {
                        OFFSET 0.20676022730000088 -0.012221336379999448 0.0001471936708000235
                      }
                    }
                  }
                }
                JOINT leftLittleProximal
                {
                  OFFSET 0.5344154683999995 -0.012880921405001189 -0.24414037221816004
                  CHANNELS 3 Yrotation Xrotation Zrotation
                  JOINT leftLittleIntermediate
                  {
                    OFFSET 0.21758961730000093 -0.011650919939999227 0.011893592810000034
                    CHANNELS 3 Yrotation Xrotation Zrotation
                    JOINT leftLittleDistal
                    {
                      OFFSET 0.1475273964999999 -0.008152365682999818 0.006001092492999946
                      CHANNELS 3 Yrotation Xrotation Zrotation
                      End Site
                      {
                        OFFSET 0.1475273964999999 -0.008152365682999818 0.006001092492999946
                      }
                    }
                  }
                }
                JOINT leftRingProximal
                {
                  OFFSET 0.5799399463000003 0.026911854694997794 -0.12150566991816003
                  CHANNELS 3 Yrotation Xrotation Zrotation
                  JOINT leftRingIntermediate
                  {
                    OFFSET 0.26167887460000006 -0.013480186499999602 0.010996293000000053
                    CHANNELS 3 Yrotation Xrotation Zrotation
                    JOINT leftRingDistal
                    {
                      OFFSET 0.17667108799999987 -0.008990287899999228 0.0055541023999999065
                      CHANNELS 3 Yrotation Xrotation Zrotation
                      End Site
                      {
                        OFFSET 0.17667108799999987 -0.008990287899999228 0.0055541023999999065
                      }
                    }
                  }
                }
                JOINT leftThumbProximal
                {
                  OFFSET 0.11018806699999972 -0.09448718900500053 0.17047963138184
                  CHANNELS 3 Yrotation Xrotation Zrotation
                  JOINT leftThumbIntermediate
                  {
                    OFFSET 0.31062601459999983 -0.08126270900000132 0.15443142000000007
                    CHANNELS 3 Yrotation Xrotation Zrotation
                    JOINT leftThumbDistal
                    {
                      OFFSET 0.21627175790000086 -0.08833193599999878 0.018771167799999988
                      CHANNELS 3 Yrotation Xrotation Zrotation
                      End Site
                      {
                        OFFSET 0.21627175790000086 -0.08833193599999878 0.018771167799999988
                      }
                    }
                  }
                }
              }
            }
          }
        }
        JOINT neck
        {
          OFFSET 0 1.5463305265074576 0
          CHANNELS 3 Yrotation Xrotation Zrotation
          JOINT head
          {
            OFFSET 0 0.8456443600000344 0
            CHANNELS 3 Yrotation Xrotation Zrotation
            JOINT leftEye
            {
              OFFSET 0.30408573140000006 0.5104519199999995 0.1276382305
              CHANNELS 3 Yrotation Xrotation Zrotation
              End Site
              {
                OFFSET 0.30408573140000006 0.5104519199999995 0.1276382305
              }
            }
            JOINT rightEye
            {
              OFFSET -0.30409491089999996 0.5104519199999995 0.1276379445
              CHANNELS 3 Yrotation Xrotation Zrotation
              End Site
              {
                OFFSET -0.30409491089999996 0.5104519199999995 0.1276379445
              }
            }
            JOINT jaw
            {
              OFFSET -3.155239131000001e-7 -0.11984121820000082 0.60178107
              CHANNELS 3 Yrotation Xrotation Zrotation
              End Site
              {
                OFFSET -3.155239131000001e-7 -0.11984121820000082 0.60178107
              }
            }
          }
        }
        JOINT rightShoulder
        {
          OFFSET -0.1807303465 1.5087829790000005 0
          CHANNELS 3 Yrotation Xrotation Zrotation
          JOINT rightUpperArm
          {
            OFFSET -0.5985063796536958 0 0
            CHANNELS 3 Yrotation Xrotation Zrotation
            JOINT rightLowerArm
            {
              OFFSET -2.2993322059002854 0 0
              CHANNELS 3 Yrotation Xrotation Zrotation
              JOINT rightHand
              {
                OFFSET -2.395045314457259 0 0
                CHANNELS 3 Yrotation Xrotation Zrotation
                JOINT rightIndexProximal
                {
                  OFFSET -0.5764487688300002 0.0441371204405987 0.17361932004999997
                  CHANNELS 3 Yrotation Xrotation Zrotation
                  JOINT rightIndexIntermediate
                  {
                    OFFSET -0.29573011380000047 -0.01934826376999843 -0.007698921482999974
                    CHANNELS 3 Yrotation Xrotation Zrotation
                    JOINT rightIndexDistal
                    {
                      OFFSET -0.19008373999999884 -0.012503266380000655 -0.0026365778999999897
                      CHANNELS 3 Yrotation Xrotation Zrotation
                      End Site
                      {
                        OFFSET -0.19008373999999884 -0.012503266380000655 -0.0026365778999999897
                      }
                    }
                  }
                }
                JOINT rightMiddleProximal
                {
                  OFFSET -0.5834852037300005 0.05211639405060153 0.02307162440000001
                  CHANNELS 3 Yrotation Xrotation Zrotation
                  JOINT rightMiddleIntermediate
                  {
                    OFFSET -0.33880114510000003 -0.019952774050000954 0.0002455003561999819
                    CHANNELS 3 Yrotation Xrotation Zrotation
                    JOINT rightMiddleDistal
                    {
                      OFFSET -0.20675694929999955 -0.012273788999999091 0.00030209124000002766
                      CHANNELS 3 Yrotation Xrotation Zrotation
                      End Site
                      {
                        OFFSET -0.20675694929999955 -0.012273788999999091 0.00030209124000002766
                      }
                    }
                  }
                }
                JOINT rightLittleProximal
                {
                  OFFSET -0.5346811737299992 -0.011214256288399227 -0.24363941305000003
                  CHANNELS 3 Yrotation Xrotation Zrotation
                  JOINT rightLittleIntermediate
                  {
                    OFFSET -0.21757715980000092 -0.011771559690000988 0.01201554387
                    CHANNELS 3 Yrotation Xrotation Zrotation
                    JOINT rightLittleDistal
                    {
                      OFFSET -0.1475201849000004 -0.00822055339600003 0.006082065407000015
                      CHANNELS 3 Yrotation Xrotation Zrotation
                      End Site
                      {
                        OFFSET -0.1475201849000004 -0.00822055339600003 0.006082065407000015
                      }
                    }
                  }
                }
                JOINT rightRingProximal
                {
                  OFFSET -0.5800810755299999 0.027657985680600072 -0.12066365025000003
                  CHANNELS 3 Yrotation Xrotation Zrotation
                  JOINT rightRingIntermediate
                  {
                    OFFSET -0.26166445029999974 -0.013623118409999302 0.011164098990000045
                    CHANNELS 3 Yrotation Xrotation Zrotation
                    JOINT rightRingDistal
                    {
                      OFFSET -0.17666387530000027 -0.009072900100000503 0.005668185599999959
                      CHANNELS 3 Yrotation Xrotation Zrotation
                      End Site
                      {
                        OFFSET -0.17666387530000027 -0.009072900100000503 0.005668185599999959
                      }
                    }
                  }
                }
                JOINT rightThumbProximal
                {
                  OFFSET -0.10997596379000074 -0.09577489355940072 0.16989765924999997
                  CHANNELS 3 Yrotation Xrotation Zrotation
                  JOINT rightThumbIntermediate
                  {
                    OFFSET -0.31036620999999986 -0.08229339117999834 0.15440884469999996
                    CHANNELS 3 Yrotation Xrotation Zrotation
                    JOINT rightThumbDistal
                    {
                      OFFSET -0.21631306399999906 -0.08825326400000111 0.018656797720000014
                      CHANNELS 3 Yrotation Xrotation Zrotation
                      End Site
                      {
                        OFFSET -0.21631306399999906 -0.08825326400000111 0.018656797720000014
                      }
                    }
                  }
                }
              }
            }
          }
        }
      }
    }
  }
}
MOTION
Frames: 9
Frame Time: 0.03333333333333333
0.0683093221469235 -6.910523137571354 6.075753391818915 180 0 0 -0.007520744450489258 -5.734107515191582 -0.6287067102449622 137.1339439612813 82.03481468582451 141.8082754163336 15.531327718985718 61.776345390936186 20.73993067286225 0 0 0 -0.0023463996814745078 -6.536436322437491 -0.17621873601071925 -141.27269904353776 81.23809751062856 -145.89599068239292 -14.957597239206098 61.57112656261852 -19.28477496926579 0 0 0 -0.0328377774420143 13.362959548693762 0.0073677980780970315 -0.06576815431436644 7.46790432579612 0.989545793648663 0 0 0 25.578984071541083 -37.80977702189126 -14.948052247402611 -20.564128331459475 -25.857218538721444 -64.59059361371982 -118.69776987316786 52.07199392566534 -8.63989956472758 -1.3635986311257018 -16.61593733908597 -14.808845088057666 0 0 0 0 0 0 0 0 0 0 0 0 0 0 0 0 0 0 0 0 0 0 0 0 0 0 0 0 0 0 0 0 0 0 0 0 0 0 0 0 0 0 0 0 0 0 38.608999083098496 0 0 -43.53566266527457 0 0 0 0 0 0 0 0 0 0 -27.899563249877307 -21.82417328841074 16.88421633844188 15.639587865056608 -19.22069066919545 64.99255742482386 103.49629004402378 -4.334932513901923 10.895864054019723 -29.295648782079276 5.794794981171578 17.068454397275808 0 0 0 0 0 0 0 0 0 0 0 0 0 0 0 0 0 0 0 0 0 0 0 0 0 0 0 0 0 0 0 0 0 0 0 0 0 0 0 0 0 0 0 0 0
0.06820183104226543 -6.90444995725624 6.065057825611232 180 0 0 -0.010454616764417354 -5.600786623653965 -0.5284805278620703 135.97646941996632 82.2482733455367 140.6633262491469 15.498183068807977 61.6862030301002 20.633849359517313 0 0 0 -0.002262846605265221 -6.3030669642294885 -0.1762037391400416 -140.14291062634473 81.4433092209499 -144.78058329393758 -14.938192092531427 61.490943781658 -19.19579958164758 0 0 0 -0.0327130345750004 13.029865768793423 0.007598375847145193 -0.0660123042874452 8.560906102616391 0.98832183081441 0 0 0 26.30064640099692 -38.28736953088707 -15.139550563089816 -20.74693028348297 -25.90622836292175 -64.61548236437751 -119.13479954228818 52.04782087381902 -8.753954623108223 -0.9846394600952556 -16.941409508100815 -14.615888667215781 0 0 0 0 0 0 0 0 0 0 0 0 0 0 0 0 0 0 0 0 0 0 0 0 0 0 0 0 0 0 0 0 0 0 0 0 0 0 0 0 0 0 0 0 0 0 37.647144095438634 0 0 -43.30234798106263 0 0 0 0 0 0 0 0 0 0 -28.19046227613945 -22.171876008438456 16.961022459461773 15.730551807504398 -19.255089071251195 65.02902092291878 103.49629004402378 -4.334932513901923 10.895864054019723 -29.304081994134204 5.486983285884511 16.963740741464317 0 0 0 0 0 0 0 0 0 0 0 0 0 0 0 0 0 0 0 0 0 0 0 0 0 0 0 0 0 0 0 0 0 0 0 0 0 0 0 0 0 0 0 0 0
0.06809433993760734 -6.898376776941126 6.05436225940355 180 0 0 -0.013153542059878695 -5.467460982458692 -0.4282837425772878 134.7544252194602 82.4584197848947 139.45380472800738 15.465484094209824 61.5960287858738 20.52818672329794 0 0 0 -0.002179269160000579 -6.069697802731471 -0.17618841086925613 -138.95853188006808 81.64508461492007 -143.61058425654994 -14.919095809367763 61.410752960555065 -19.107112414200742 0 0 0 -0.032589832761775975 12.696772311286718 0.007827903998167782 -0.06628088912300097 9.65390816013237 0.9870892043103231 0 0 0 27.029143393669216 -38.76301421981031 -15.340021696830624 -20.929784707025814 -25.955311732280638 -64.64020839041507 -119.571510396209 52.023111447625205 -8.867645063364616 -0.6061659565582802 -17.268093157287726 -14.424852645117545 0 0 0 0 0 0 0 0 0 0 0 0 0 0 0 0 0 0 0 0 0 0 0 0 0 0 0 0 0 0 0 0 0 0 0 0 0 0 0 0 0 0 0 0 0 0 36.6852928919699 0 0 -43.06903237789836 0 0 0 0 0 0 0 0 0 0 -28.48259159164081 -22.51921151217272 17.039930082042837 15.821511022991782 -19.289543534662943 65.06543660623088 103.49629004402378 -4.334932513901923 10.895864054019723 -29.311950173471278 5.179156763347429 16.859125222799857 0 0 0 0 0 0 0 0 0 0 0 0 0 0 0 0 0 0 0 0 0 0 0 0 0 0 0 0 0 0 0 0 0 0 0 0 0 0 0 0 0 0 0 0 0
0.06787935772829116 -6.886230684703168 6.032971932164998 180 0 0 -0.017848337734546516 -5.200769858948847 -0.2279570156632832 132.09824575482557 82.86776611989187 136.8226654212023 15.401413172580266 61.41559914232911 20.31809498716767 0 0 0 -0.0020135714328905676 -5.602875538553527 -0.1761572413586939 -136.41319562790204 82.03742748425118 -141.09400552697684 -14.88181359144136 61.250304218356035 -18.930561252270408 0 0 0 -0.032346609787928166 12.030333695782012 0.008283585946676055 -0.06689678455368181 11.8488201898223 0.9845849841057477 0 0 0 28.51061716352435 -39.710051394449344 -15.769498510413655 -21.295695656928004 -26.05372242744294 -64.68920134793977 -120.44430330349344 51.97207039413229 -9.093981964896722 0.15024188527144955 -17.92577362243781 -14.048151606858166 0 0 0 0 0 0 0 0 0 0 0 0 0 0 0 0 0 0 0 0 0 0 0 0 0 0 0 0 0 0 0 0 0 0 0 0 0 0 0 0 0 0 0 0 0 0 34.75553316470578 0 0 -42.60232279663798 0 0 0 0 0 0 0 0 0 0 -29.071039038353778 -23.213190826160574 17.204237070449437 16.003427832301202 -19.358628076613563 65.13813190587811 103.49629004402378 -4.334932513901923 10.895864054019723 -29.3259881472956 4.5632443845563095 16.65008913305573 0 0 0 0 0 0 0 0 0 0 0 0 0 0 0 0 0 0 0 0 0 0 0 0 0 0 0 0 0 0 0 0 0 0 0 0 0 0 0 0 0 0 0 0 0
0.06777186662363308 -6.880157504388055 6.022276634349587 180 0 0 -0.01984405191834803 -5.06740894991197 -0.1278257294803534 130.65444378556353 83.0663007002813 135.39138075778695 15.370034201922271 61.32534376636051 20.21365791891045 0 0 0 -0.001929938639249067 -5.369430200320279 -0.1761420794930268 -135.04591139334906 82.22738752299846 -139.74109577712574 -14.863628270090405 61.1700534083479 -18.84270220277562 0 0 0 -0.032227619822332444 11.697013774313412 0.00850995217283308 -0.06724439740751935 12.94994444104638 0.9833117547041597 0 0 0 29.263793634430094 -40.181044502318045 -15.998843089835205 -21.478754880518263 -26.103036720029806 -64.71344576795546 -120.88035455451794 51.945746144389126 -9.206616645782862 0.5281409147861588 -18.25667668656702 -13.862542204273492 0 0 0 0 0 0 0 0 0 0 0 0 0 0 0 0 0 0 0 0 0 0 0 0 0 0 0 0 0 0 0 0 0 0 0 0 0 0 0 0 0 0 0 0 0 0 33.78816611834427 0 0 -42.36894021160319 0 0 0 0 0 0 0 0 0 0 -29.367388148562934 -23.559770979951633 17.289671051760873 16.09438353180491 -19.393252823782873 65.17440344357881 103.49629004402378 -4.334932513901923 10.895864054019723 -29.332159765956142 4.255182510447039 16.545666720148773 0 0 0 0 0 0 0 0 0 0 0 0 0 0 0 0 0 0 0 0 0 0 0 0 0 0 0 0 0 0 0 0 0 0 0 0 0 0 0 0 0 0 0 0 0
0.067664375518975 -6.874084324072942 6.011581336534175 180 0 0 -0.021605422951080783 -4.934044281922398 -0.02771949509788086 129.12701706240685 83.26020597215147 133.87647240248393 15.339086877703112 61.235056636794425 20.10962355539577 0 0 0 -0.0018462748335920055 -5.135984218777116 -0.17612656763350135 -133.61143289530176 82.41276089078228 -138.32098979211386 -14.845743059440835 61.08978729722119 -18.755117609669792 0 0 0 -0.03211011243037329 11.363694249239567 0.008735344167633252 -0.06761884466995086 14.051068142630124 0.9820257140851519 0 0 0 30.024727825932107 -40.6496720690116 -16.2379368889058 -21.66186709536326 -26.15241937498271 -64.737523722865 -121.3160618874945 51.918894705793534 -9.318855836991105 0.9056360076488039 -18.588735635504133 -13.678882091759196 0 0 0 0 0 0 0 0 0 0 0 0 0 0 0 0 0 0 0 0 0 0 0 0 0 0 0 0 0 0 0 0 0 0 0 0 0 0 0 0 0 0 0 0 0 0 32.82080562841189 0 0 -42.135555734359635 0 0 0 0 0 0 0 0 0 0 -29.66509053088661 -23.905941602217993 17.37729209538666 16.185334689625098 -19.4279302044543 65.21062587974654 103.49629004402378 -4.334932513901923 10.895864054019723 -29.337765727380464 3.9471103222219064 16.44131632593896 0 0 0 0 0 0 0 0 0 0 0 0 0 0 0 0 0 0 0 0 0 0 0 0 0 0 0 0 0 0 0 0 0 0 0 0 0 0 0 0 0 0 0 0 0
0.06744939330965884 -6.861937963442713 5.99019047251108 180 0 0 -0.02442504437222555 -4.667292223021568 0.17243383046291003 125.79996150686152 83.63261844079135 130.57444796663992 15.278470491987036 61.054401426058405 19.902741736243527 0 0 0 -0.0016803431484397873 -4.669037148273931 -0.17609205639520215 -130.5276552043589 82.768416383705 -135.2659507765877 -14.810868895874615 60.92922306560031 -18.580766710887406 0 0 0 -0.03188022189388847 10.696897553321733 0.00918333715687376 -0.06845384340263597 16.25905574578749 0.9794037476185851 0 0 0 31.5728499205823 -41.58062350923138 -16.746815624653557 -22.028290517328887 -26.251382650810278 -64.78517271249973 -122.18666640655685 51.86360297565202 -9.542186857043497 1.660033235277843 -19.256731404516266 -13.317172748805396 0 0 0 0 0 0 0 0 0 0 0 0 0 0 0 0 0 0 0 0 0 0 0 0 0 0 0 0 0 0 0 0 0 0 0 0 0 0 0 0 0 0 0 0 0 0 30.882193122735043 0 0 -41.66871096322237 0 0 0 0 0 0 0 0 0 0 -30.26495233607776 -24.597300332021224 17.559272392167838 16.3672339486782 -19.497453920599458 65.28291570974919 103.49629004402378 -4.334932513901923 10.895864054019723 -29.347281968060575 3.330793189923429 16.232758355384497 0 0 0 0 0 0 0 0 0 0 0 0 0 0 0 0 0 0 0 0 0 0 0 0 0 0 0 0 0 0 0 0 0 0 0 0 0 0 0 0 0 0 0 0 0
0.06734190220500075 -6.855864917323736 5.9794951746956695 180 0 0 -0.025484610861912622 -4.533906393631027 0.2724818658404526 123.98983035597311 83.8101442273559 128.77682852005904 15.248795709942526 60.96403335903281 19.79988826744267 0 0 0 -0.0015965677716776863 -4.435545048101867 -0.1760751851938257 -128.8721892999218 82.93791871343663 -133.6248541852398 -14.793872674256017 60.84892479252777 -18.493993398237524 0 0 0 -0.031766782007123996 10.363441608258976 0.009406237638284399 -0.068915488965449 17.365111337289154 0.9780664183545195 0 0 0 32.36023943334977 -42.042541948888285 -17.016937178376015 -22.211591219189813 -26.30097875178147 -64.80876409170875 -122.6215215942335 51.83517567706268 -9.653250793026293 2.036902562106644 -19.59257064319169 -13.1391793295293 0 0 0 0 0 0 0 0 0 0 0 0 0 0 0 0 0 0 0 0 0 0 0 0 0 0 0 0 0 0 0 0 0 0 0 0 0 0 0 0 0 0 0 0 0 0 29.91149603843074 0 0 -41.43527996931591 0 0 0 0 0 0 0 0 0 0 -30.56712529248966 -24.94241609753388 17.653655872124432 16.45817939681446 -19.532291295099206 65.31897828084541 103.49629004402378 -4.334932513901923 10.895864054019723 -29.351200562938807 3.022574791380526 16.12855095617801 0 0 0 0 0 0 0 0 0 0 0 0 0 0 0 0 0 0 0 0 0 0 0 0 0 0 0 0 0 0 0 0 0 0 0 0 0 0 0 0 0 0 0 0 0
0.06723441110034267 -6.849791871204757 5.968799876880259 180 0 0 -0.02631037962697126 -4.400519066430016 0.37250923488559057 122.07529075840738 83.98122179348968 126.87479858985363 15.219540000514641 60.873640664017415 19.697421808802314 0 0 0 -0.0015127492798983793 -4.202052684586509 -0.1760579968496948 -127.13726893829907 83.10129748395975 -131.90429821539644 -14.777168195120497 60.76861797775461 -18.407487804765605 0 0 0 -0.03165478205264197 10.029984712671626 0.009628234786387434 -0.06940725271441749 18.471164959616484 0.9767112989793939 0 0 0 33.15634744710873 -42.501631235774866 -17.297624034569985 -22.3949471691074 -26.35064181369081 -64.8321885711733 -123.05600661922323 51.806230563658175 -9.763892189869534 2.4134559786718146 -19.929506171239463 -12.963164169174942 0 0 0 0 0 0 0 0 0 0 0 0 0 0 0 0 0 0 0 0 0 0 0 0 0 0 0 0 0 0 0 0 0 0 0 0 0 0 0 0 0 0 0 0 0 0 28.940796033783133 0 0 -41.20184121136041 0 0 0 0 0 0 0 0 0 0 -30.8707807319709 -25.287071795450174 17.75031847783044 16.54911994870193 -19.567183302892566 65.35498881721773 103.49629004402378 -4.334932513901923 10.895864054019723 -29.354556157214514 2.714349897616255 16.0243931606344 0 0 0 0 0 0 0 0 0 0 0 0 0 0 0 0 0 0 0 0 0 0 0 0 0 0 0 0 0 0 0 0 0 0 0 0 0 0 0 0 0 0 0 0 0
